<svg width="21.000977" height="19.500000" viewBox="0 0 21.001 19.5" fill="none" xmlns="http://www.w3.org/2000/svg" xmlns:xlink="http://www.w3.org/1999/xlink">
	<desc>
			Created with Pixso.
	</desc>
	<defs/>
	<path id="Vector" d="M1.5 9.75C1.49 8.3 1.88 6.88 2.6 5.62C3.32 4.37 4.37 3.32 5.62 2.6C6.87 1.88 8.3 1.5 9.74 1.5C11.19 1.5 12.62 1.88 13.87 2.6C14.04 2.7 14.25 2.72 14.44 2.67C14.63 2.62 14.79 2.49 14.89 2.32C14.99 2.15 15.02 1.95 14.97 1.76C14.92 1.57 14.79 1.4 14.62 1.3C12.76 0.23 10.6 -0.2 8.47 0.08C6.34 0.36 4.37 1.33 2.85 2.85C1.33 4.37 0.36 6.34 0.08 8.47C-0.2 10.6 0.23 12.76 1.3 14.62C2.37 16.48 4.03 17.93 6.01 18.75C8 19.57 10.19 19.72 12.27 19.16C14.34 18.61 16.17 17.38 17.48 15.68C18.79 13.98 19.49 11.89 19.5 9.75C19.5 9.55 19.42 9.36 19.28 9.22C19.13 9.08 18.94 9 18.75 9C18.55 9 18.36 9.08 18.21 9.22C18.07 9.36 18 9.55 18 9.75C18 11.93 17.13 14.03 15.58 15.58C14.03 17.13 11.93 18 9.75 18C7.56 18 5.46 17.13 3.91 15.58C2.36 14.03 1.5 11.93 1.5 9.75Z" fill="#FFFFFF" fill-opacity="1.000000" fill-rule="nonzero"/>
	<path id="Vector" d="M20.78 2.78C20.85 2.71 20.9 2.62 20.94 2.53C20.98 2.44 21 2.34 21 2.25C21 2.15 20.98 2.05 20.94 1.96C20.9 1.87 20.85 1.79 20.78 1.72C20.71 1.65 20.62 1.59 20.53 1.55C20.44 1.51 20.34 1.5 20.25 1.5C20.15 1.5 20.05 1.51 19.96 1.55C19.87 1.59 19.78 1.65 19.71 1.72L9.75 11.69L5.78 7.72C5.71 7.65 5.62 7.59 5.53 7.55C5.44 7.51 5.34 7.5 5.25 7.5C5.15 7.5 5.05 7.51 4.96 7.55C4.87 7.59 4.78 7.65 4.71 7.72C4.64 7.79 4.59 7.87 4.55 7.96C4.51 8.05 4.49 8.15 4.49 8.25C4.49 8.34 4.51 8.44 4.55 8.53C4.59 8.62 4.64 8.71 4.71 8.78L9.21 13.28C9.28 13.35 9.37 13.4 9.46 13.44C9.55 13.48 9.65 13.5 9.75 13.5C9.84 13.5 9.94 13.48 10.03 13.44C10.12 13.4 10.21 13.35 10.28 13.28L20.78 2.78Z" fill="#FFFFFF" fill-opacity="1.000000" fill-rule="nonzero"/>
</svg>
